<?xml version="1.0" encoding="utf-8"?>
<!-- Generator: Adobe Illustrator 25.0.1, SVG Export Plug-In . SVG Version: 6.00 Build 0)  -->
<svg version="1.1" id="Capa_1" xmlns="http://www.w3.org/2000/svg" xmlns:xlink="http://www.w3.org/1999/xlink" x="0px" y="0px"
	 viewBox="0 0 595.28 841.89" style="enable-background:new 0 0 595.28 841.89;" xml:space="preserve">
<style type="text/css">
	.st0{fill:#FFFFFF;}
	.st1{fill:#184149;}
</style>
<g>
	<path class="st0" d="M397.83,453.34c22.84-0.01,45.67-0.03,68.51-0.02c1.62,0,3.26-0.11,4.83,0.51c3.19,1.28,5.55,4.99,5.04,7.97
		c-0.64,3.68-3.56,6.54-7.32,6.58c-12.62,0.13-25.24,0.1-37.86,0.12c-10.12,0.01-20.24,0.07-30.35-0.07
		c-2.42-0.03-3.24,0.41-3.22,3.09c0.13,20.34,0.06,40.69,0.02,61.04c0,0.9,0.54,2.15-0.5,2.63c-0.88,0.4-1.78-0.4-2.61-0.9
		c-7.88-4.81-15.78-9.59-23.64-14.44c-1.39-0.86-2.57-1.06-3.96-0.03c-1.23,0.91-2.59,1.64-3.89,2.45c-0.82,0.83-1.96,1.12-2.9,1.75
		c-2.29,1.37-4.58,2.74-6.87,4.12c-2.02,0.89-3.47,2.79-5.75,3.23c-3.22,1.85-6.4,3.76-9.49,5.81c-1.33,0.88-2.46,1.02-3.9-0.03
		c-1.99-1.46-4.16-2.69-6.42-3.74c-4.22-2.51-8.44-5.02-12.66-7.53c-1.34-1.07-2.93-1.76-4.23-2.89c-1.86-1.17-3.69-2.38-5.62-3.44
		c-1.47-0.81-2.73-0.85-4.04-0.05c-8.2,4.97-16.42,9.91-24.55,15c-0.61,0.74-1.51,1.02-2.33,1.43c-1.28,0.8-2.45,1.78-3.76,2.55
		l-0.26,0.04l-0.26-0.05c-3.23-2.2-6.53-4.3-9.94-6.21c-6.91-4.12-13.84-8.2-20.7-12.39c-1.43-0.87-2.48-0.92-3.91-0.02
		c-5.2,3.25-10.47,6.36-15.72,9.53c-3.1,1.42-5.87,3.39-8.71,5.24c-1.28,1.31-1.83,0.63-1.91-0.78c-0.1-1.63-0.04-3.28-0.04-4.91
		c-0.02-19.18-0.07-38.37,0.01-57.55c0.01-2.31-0.66-2.9-2.91-2.89c-22.35,0.07-44.7,0.02-67.05,0.05c-3.23,0-6.01-0.59-8.03-3.48
		c-3.67-5.26,0.89-11.48,5.48-11.56c3.37-0.05,6.74-0.13,10.11-0.13c20.42,0,40.85,0.02,61.27,0.03c1.32-0.38,1-1.49,0.99-2.39
		c-0.12-14.81-0.09-29.63-0.07-44.44c0.01-10.23,1.12-20.47,4.89-30.19c0.06-0.33,0.11-0.67,0.17-1c1.92-5.85,4.52-11.41,7.45-16.81
		c1.54-2.82,3.16-5.59,5.16-8.12c0.61-0.75,1.3-1.45,1.75-2.34c10.43-13.75,23.65-23.84,39.63-30.31
		c7.98-3.23,16.26-5.13,24.79-6.36c5.1-0.74,10.19-1.17,15.21-0.67c7.7,0.77,15.45,1.66,22.81,4.36
		c8.19,2.52,15.98,5.89,23.08,10.73c5.22,3.5,10.19,7.31,14.65,11.76c3.42,3.51,6.83,7.03,9.77,10.97
		c9.15,12.1,14.95,25.69,17.71,40.56c1.07,5.76,1.51,11.61,1.57,17.47c0.14,14.44-0.51,28.87-0.26,43.31
		C397.09,451.06,396.59,452.41,397.83,453.34z"/>
	<path class="st0" d="M213.28,573.89c-7.23,0-14.46,0.04-21.69-0.01c-18.3-0.13-34.5-14-37.5-31.77c-0.55-3.23-0.9-6.44-0.89-9.71
		c0.03-13.89,0.08-27.78-0.05-41.67c-0.02-2.47,0.74-3.12,3.07-2.97c3.07,0.19,6.18,0.2,9.25,0c2.34-0.15,3.12,0.47,3.07,2.95
		c-0.16,8.78-0.19,17.56-0.02,26.33c0.14,7.29,0.09,14.59,1.86,21.77c2.98,12.12,10.91,17.35,22.6,18.9
		c14.48,1.93,29.02,0.61,43.54,0.9c2.39,0.05,3.45,0.37,3.21,3.09c-0.29,3.25-0.18,6.56-0.03,9.83c0.09,1.9-0.5,2.46-2.41,2.44
		c-8-0.1-16-0.04-24-0.04C213.28,573.92,213.28,573.91,213.28,573.89z"/>
	<path class="st0" d="M153.21,333.85c0.32-7.06-0.52-15.74,0.41-24.39c2.04-18.99,18.36-34.11,37.19-34.34
		c15.41-0.19,30.82-0.01,46.23-0.13c2.23-0.02,2.77,0.65,2.66,2.76c-0.18,3.36-0.16,6.75,0,10.12c0.09,1.92-0.53,2.4-2.41,2.39
		c-11.94-0.08-23.89-0.28-35.83,0.05c-6.95,0.19-13.94,0.89-20.3,4.3c-7.23,3.87-9.96,10.57-11.43,18.05
		c-1.06,5.4-1.08,10.9-1.19,16.36c-0.2,9.83-0.12,19.66-0.01,29.49c0.02,2.06-0.6,2.62-2.59,2.53c-3.46-0.15-6.94-0.17-10.4,0.01
		c-2.03,0.11-2.39-0.67-2.37-2.48C153.25,350.86,153.21,343.15,153.21,333.85z"/>
	<path class="st0" d="M394.07,573.89c-9.65,0-17.55-0.06-25.45,0.04c-1.79,0.02-2.32-0.46-2.25-2.26c0.14-3.56,0.17-7.14-0.01-10.7
		c-0.1-2.02,0.66-2.34,2.45-2.32c11.66,0.07,23.32,0.15,34.98-0.02c4.96-0.07,9.91-0.71,14.74-1.98c9.92-2.6,15.3-9.32,17.33-19.13
		c0.86-4.16,1.19-8.37,1.22-12.59c0.08-11.47,0.09-22.95-0.02-34.42c-0.02-2.14,0.47-2.88,2.69-2.76c3.56,0.19,7.13,0.1,10.69,0.03
		c1.46-0.03,2.01,0.37,2,1.95c-0.05,16.1,0.61,32.24-0.21,48.3c-0.91,17.95-14.72,32.4-32.25,35.28
		C410.83,574.82,401.54,573.46,394.07,573.89z"/>
	<path class="st0" d="M392.88,275.08c7.52,0,15.03-0.02,22.55,0c17.44,0.05,34.59,15.55,36.57,32.91c0.33,2.88,0.42,5.74,0.42,8.62
		c0,13.98-0.03,27.96,0.04,41.94c0.01,1.79-0.3,2.6-2.35,2.49c-3.56-0.18-7.13-0.18-10.69,0c-2.07,0.11-2.34-0.76-2.33-2.51
		c0.06-11.67,0.07-23.33,0.01-35c-0.03-6.07-0.68-12.08-2.83-17.81c-3.64-9.67-11.47-13.35-21.01-14.57
		c-14.67-1.88-29.4-0.6-44.1-0.87c-2.35-0.04-2.89-0.72-2.78-2.9c0.17-3.37,0.15-6.75,0-10.12c-0.08-1.78,0.43-2.29,2.23-2.27
		c8.09,0.1,16.19,0.04,24.28,0.04C392.88,275.05,392.88,275.07,392.88,275.08z"/>
	<path class="st0" d="M397.83,453.34c-1.99-0.49-1.28-2.13-1.31-3.34c-0.42-14.25,0.88-28.49,0.45-42.73
		c-0.54-17.82-4.12-34.86-13.73-50.28c-1.88-3.01-4.37-5.6-5.86-8.85c-0.27-0.29-0.25-0.54,0.08-0.76
		c5.65,6.44,9.53,13.93,12.83,21.74c3.2,7.56,5.08,15.46,6.42,23.58c0.78,4.72,0.87,9.37,0.9,14.07
		c0.08,14.37,0.01,28.75,0.02,43.12C397.63,451.03,397.76,452.19,397.83,453.34z"/>
	<path class="st0" d="M213.58,376.33c-1.05,5.65-3.02,11.1-3.52,16.89c-0.4,4.6-0.89,9.17-0.88,13.79
		c0.02,14.54,0.04,29.09-0.01,43.63c0,0.99,0.88,2.76-1.39,2.71c0.75-0.77,0.69-1.74,0.68-2.71c-0.19-14.72-0.07-29.44-0.17-44.16
		c-0.07-9.99,1.4-19.92,4.43-29.53C212.85,376.52,213.19,376.4,213.58,376.33z"/>
	<path class="st0" d="M276.12,534.46c4.44-3.69,9.78-5.96,14.52-9.18c2.77-1.88,5.82-3.35,8.54-5.29c2.5-1.78,4.64-2.11,7.27-0.22
		c1.46,1.05,3.03,1.98,4.47,3.08c-0.18,0.35-0.43,0.4-0.74,0.16c-1.59-0.88-3.31-1.58-4.73-2.67c-1.89-1.45-3.37-0.99-5.21,0.14
		c-7.75,4.79-15.57,9.44-23.37,14.14C276.57,534.82,276.32,534.77,276.12,534.46z"/>
	<path class="st0" d="M327.54,533.4c2.52,0.18,4.31,1.94,6.28,3.17c1.62,1,2.76,0.73,4.19-0.05c3.16-1.74,5.92-4.18,9.37-5.42
		c0.15,0.13,0.2,0.27,0.16,0.41c-0.04,0.14-0.09,0.21-0.13,0.21c-3.14,2.37-6.86,3.81-9.88,6.37c-0.9,0.77-2.3,0.84-2.95,0.2
		C332.48,536.26,329.54,535.52,327.54,533.4z"/>
	<path class="st0" d="M353.64,326.15c-6.94-4.45-14.36-7.89-22.21-10.42c-0.33-0.11-0.59-0.43-0.88-0.65
		c5.92,0.89,11.16,3.62,16.39,6.27c2.6,1.32,5.31,2.55,7.45,4.65C354.19,326.34,353.94,326.39,353.64,326.15z"/>
	<path class="st0" d="M353.64,326.15c0.25-0.05,0.5-0.09,0.75-0.14c5.23,3.34,10.3,6.89,14.37,11.66c-0.21,0.3-0.45,0.33-0.72,0.09
		c-4.45-3.57-8.35-7.83-13.47-10.55C354.18,327,353.95,326.51,353.64,326.15z"/>
	<path class="st0" d="M221.2,358.52c-2.48,5.6-4.97,11.21-7.45,16.81c0.48-4.27,2.65-7.93,4.38-11.72
		C218.93,361.83,219.48,359.79,221.2,358.52z"/>
	<path class="st0" d="M368.04,337.76c0.24-0.03,0.48-0.06,0.72-0.09c3.43,2.76,6.24,6.07,8.7,9.7c-0.03,0.25-0.06,0.51-0.08,0.76
		C374.26,344.68,371.15,341.22,368.04,337.76z"/>
	<path class="st0" d="M259.89,532.24c3.78,1.32,7.03,3.49,9.94,6.21C266.2,536.88,262.93,534.74,259.89,532.24z"/>
	<path class="st0" d="M210.84,534.59c2.5-2.41,5.22-4.46,8.71-5.24C216.85,531.44,214.05,533.35,210.84,534.59z"/>
	<path class="st0" d="M347.41,531.72c-0.01-0.21-0.02-0.42-0.03-0.63c2.07-0.67,3.41-2.75,5.71-2.96
		C351.56,529.91,349.62,531.03,347.41,531.72z"/>
	<path class="st0" d="M310.19,523c0.25-0.05,0.49-0.1,0.74-0.16c1.33,0.99,3.09,1.42,3.95,3.03
		C313.07,525.32,311.5,524.36,310.19,523z"/>
	<path class="st0" d="M270.35,538.46c0.8-1.39,2.2-1.99,3.53-2.68c0.19,0.12,0.25,0.25,0.2,0.39c-0.05,0.14-0.11,0.21-0.17,0.21
		C272.79,537.19,271.99,538.54,270.35,538.46z"/>
	<path class="st0" d="M359.97,524.02c0.58-1.22,1.74-1.49,2.9-1.75C362.33,523.56,361.24,523.94,359.97,524.02z"/>
	<path class="st0" d="M273.91,536.38c-0.01-0.2-0.02-0.4-0.04-0.6c0.75-0.44,1.49-0.88,2.24-1.32c0.25,0.05,0.5,0.1,0.75,0.14
		C276.05,535.47,275.12,536.15,273.91,536.38z"/>
	<path class="st0" d="M228.11,348.06c-0.01,1.2-0.69,1.91-1.75,2.34C226.5,349.29,227.07,348.5,228.11,348.06z"/>
	<path class="st0" d="M249.56,441.29c-4.82-4.82-7.69-10.68-8.65-17.36c-0.39-2.7-0.23-5.52,0.25-8.31c0.46-2.63,1.81-3.03,4.06-2.5
		c5.68,1.33,11.37,2.6,17.05,3.9c0.18,0.32,0.12,0.6-0.17,0.82c-2.75,1.01-5.19-0.82-7.83-0.87c-1.89-0.56-3.79-1.08-5.8-0.95
		c-0.6-0.03-1.19-0.13-1.75-0.37c-3.14-1.59-3.56-1.43-4.21,1.86c-0.84,4.29-0.22,8.39,1.54,12.4c1.63,3.71,3.98,7.01,5.81,10.6
		C249.88,440.82,249.77,441.08,249.56,441.29z"/>
	<path class="st0" d="M249.56,441.29c0.02-0.25,0.05-0.5,0.07-0.75c1.1-0.49,1.87,0.42,2.81,0.66c4.23,1.46,8.2,3.6,12.52,4.8
		c2.09,0.5,4.16,0.39,6.26-0.06c1.37-0.29,2.75-1.03,4.2-0.27c0.3,0.22,0.35,0.49,0.14,0.81
		C265.85,449.98,257.66,445.86,249.56,441.29z"/>
	<path class="st0" d="M314.99,432c-1.67-1.54-1.79-3.73-2.34-5.72c-0.31-1.12,0.18-2.05,1.5-2.34c7.19-1.56,14.37-3.14,21.55-4.72
		c0.2,0.27,0.21,0.56,0.04,0.85c-1.14,1.25-2.83,0.97-4.22,1.53c-3.52,0.84-7.06,1.62-10.59,2.43c-0.47,0.07-0.95,0.04-1.41,0.14
		c-1.67,0.36-3.7,0.31-4.83,1.46c-1.29,1.3,0.44,2.95,0.6,4.48C315.36,430.79,315.52,431.44,314.99,432z"/>
	<path class="st0" d="M357.07,440.57c0.02,0.24,0.04,0.48,0.06,0.73c-7.53,4.17-15.1,8.27-24.19,5.7c-1.24-0.35-2.72-0.39-3.53-1.7
		c1.14-0.9,2.31-0.05,3.46-0.06c0.74,0.12,1.46,0.34,2.17,0.55c3.56,1.16,7.07,0.66,10.38-0.75c3.17-1.35,6.53-2.24,9.5-4.07
		C355.58,440.56,356.26,440.16,357.07,440.57z"/>
	<path class="st0" d="M275,419.91c5.66,1.32,11.31,2.69,17,3.92c1.49,0.32,2.43,0.97,2.04,2.46c-0.52,1.98-0.67,4.17-2.34,5.7
		c-1-1.69,0.21-3.12,0.62-4.6c0.42-1.54-0.08-2.14-1.55-2.22c-3.64-0.88-7.29-1.73-10.97-2.42c-1.66-0.69-3.69-0.42-5-1.99
		C274.71,420.44,274.78,420.16,275,419.91z"/>
	<path class="st0" d="M314.99,432c-0.49-1.65-0.93-3.31-1.47-4.93c-0.46-1.36-0.21-2.28,1.3-2.55c1.97-0.36,3.84-1.2,5.89-1.14
		c0.16,0.26,0.16,0.51,0,0.77c-0.79,0.83-1.87,0.92-2.89,1.16c-2.77,0.66-2.93,0.97-2.06,3.79c0.93,2.98,2.34,5.69,4.41,8.04
		c0.63,0.72,1.38,1.37,1.43,2.43c-0.05,0.29-0.18,0.53-0.4,0.71C318,438.38,316.76,434.99,314.99,432z"/>
	<path class="st0" d="M275.56,446.48c-0.01-0.23-0.02-0.45-0.03-0.68c0.38-1.44,1.89-1.31,2.8-2.02c4.49-1.67,7.86-4.8,10.87-8.39
		c0.26-0.11,0.53-0.09,0.78,0.03c-1.59,4.76-5.63,6.99-9.63,9.19C278.87,445.44,277.17,445.87,275.56,446.48z"/>
	<path class="st0" d="M321.2,440.29c0.03-0.25,0.07-0.5,0.1-0.74c1.82-0.22,2.86,1.29,4.28,1.96c1.72,0.81,3.42,1.65,5.17,2.4
		c0.9,0.38,2.09,0.6,2.12,1.98c-1.15-0.2-2.31-0.4-3.46-0.59C326.57,443.8,323.43,442.79,321.2,440.29z"/>
	<path class="st0" d="M335.74,419.72c0-0.17-0.01-0.33-0.03-0.5c4.18-1.22,8.4-2.25,12.71-2.9c0.03,0.17,0.04,0.34,0.05,0.51
		c-0.86,1.76-2.74,1.26-4.12,1.89c-1.83,0.37-3.62,0.97-5.46,1.25C337.86,420.11,336.7,420.81,335.74,419.72z"/>
	<path class="st0" d="M275,419.91c-0.01,0.23-0.02,0.46-0.04,0.69c-1.64,1.17-3.25,0.13-4.84-0.15c-1-0.18-2.02-0.34-3.02-0.57
		c-1.6-0.76-3.79-0.24-4.87-2.17c0.01-0.23,0.02-0.46,0.04-0.7C266.52,417.98,270.76,418.95,275,419.91z"/>
	<path class="st0" d="M289.99,435.43c-0.19,0-0.37,0.01-0.56,0.02c-0.32-0.31-0.42-0.7-0.41-1.13c0.49-2.02,1.63-3.8,2.18-5.81
		c0.31-1.14,0.49-2.2-0.25-3.23c-0.03-0.27,0.04-0.51,0.23-0.72c1.94-0.11,2.59,0.72,1.96,2.59c-0.53,1.6-0.97,3.23-1.45,4.85
		C291.13,433.14,290.56,434.29,289.99,435.43z"/>
	<path class="st1" d="M291.18,425.12c1.67,0.39,1.37,1.57,0.96,2.65c-0.85,2.21-1.79,4.38-2.69,6.57c-2.16,5.1-6.48,7.7-11.26,9.79
		c-4.2,1.71-8.47,2.99-13.05,2.54c-0.42-0.08-0.84-0.16-1.25-0.23c-3.68-1.01-7.05-2.83-10.61-4.13c-1.07-0.39-2.04-1.02-2.84-1.82
		c-4.39-4.38-6.69-9.95-8.32-15.9c-0.8-2.9-0.13-5.76,0.37-8.58c0.32-1.77,1.07-2.07,3.3-1.26c0.73,0.27,1.5,0.45,2.27,0.51
		l0.13,0.01c0.14,0.02,0.28,0.04,0.42,0.06c1.78,0.38,3.58,0.65,5.32,1.21c0.35,0.09,0.69,0.17,1.04,0.26
		c3.94,0.68,7.82,1.58,11.66,2.67c0.26,0.06,0.51,0.11,0.77,0.17c4.05,0.67,8.03,1.61,11.98,2.73c0.25,0.06,0.51,0.12,0.76,0.17
		C283.86,423.18,287.57,423.91,291.18,425.12z"/>
	<path class="st0" d="M246.82,415.16c-3.88-0.63-3.8-0.62-4.24,3.08c-1.07,9.02,2.75,16.08,8.73,22.33c0.3,0.32,2.2,1.46,2.38,1.89
		c-0.31,0.09-2.61-0.66-4.06-1.91c-4.51-5.99-8.38-12.24-8.18-20.13c0.03-1.24,0.23-2.49,0.44-3.71
		C242.5,413.26,243.99,412.81,246.82,415.16z"/>
	<path class="st0" d="M266.9,419.83c-4.24-0.96-8.48-1.92-12.72-2.88c-0.14-0.15-0.18-0.3-0.12-0.45c0.05-0.14,0.11-0.21,0.15-0.21
		c2.67,0.47,5.35,0.95,8.02,1.42c1.57,0.49,3.15,0.97,4.72,1.46C267.24,419.41,267.22,419.64,266.9,419.83z"/>
	<path class="st0" d="M254.22,416.29c-0.01,0.22-0.02,0.44-0.03,0.67c-1.93-0.56-4.02-0.58-5.8-1.68
		C250.46,414.87,252.32,415.67,254.22,416.29z"/>
	<path class="st1" d="M330.2,446.84c-3.59-2.07-7.68-3.21-10.92-5.91c-0.11-0.09-0.21-0.19-0.31-0.29
		c-2.95-3.01-5.01-6.55-6.27-10.59c-1.01-3.25-0.95-3.41,2.45-4.14c1.07-0.23,2.14-0.46,3.21-0.69c0.1-0.02,0.21-0.05,0.31-0.09
		c3.64-1.26,7.48-1.7,11.18-2.73c4.22-0.98,8.47-1.86,12.68-2.88c2.45-0.43,4.81-1.28,7.29-1.55c0.18-0.02,0.36-0.06,0.53-0.11
		c1.81-0.58,3.66-0.96,5.54-1.23c0.6-0.15,1.58-0.4,2.18-0.55c0.33-0.11,0.66-0.22,0.99-0.32c1.96-0.62,2.74,0.21,3.15,2.13
		c1.04,4.82,0.4,9.38-1.73,13.76c-0.85,1.76-1.58,3.58-2.67,5.21c-0.23,0.35-0.38,0.74-0.5,1.14c-0.19,0.66-0.86,1.06-1.17,1.65
		c-0.63,0.85-1.34,1.55-2.26,2.14c-4.71,3.02-9.94,4.74-15.28,6.16c-1.81,0.48-3.52,0.16-5.38-0.32
		C332.35,447.4,331.06,447.07,330.2,446.84z"/>
	<path class="st0" d="M359.53,436.25c1.6-4.19,4.01-8.02,4.81-12.57c0.46-2.6-0.4-4.93-0.48-7.39c-0.04-1.22-0.97-1.78-2.29-1.44
		c-0.73,0.19-1.49,0.23-2.24,0.34c3.5-2.46,4.84-1.99,5.55,1.92C366.2,424.36,364.09,430.64,359.53,436.25z"/>
	<path class="st0" d="M330.8,447.35c4.07,1.08,4.7,0.6,7.19-0.19c6.96-2.21,13.76-4.67,19.49-9.84c0.16,1.3-1.04,1.73-1.4,2.7
		c4.32,2.41-10.39,8.33-15.99,10.16C337.04,451.17,333.86,448.48,330.8,447.35z"/>
	<path class="st0" d="M352.51,416.96c-2.51,0.57-5.02,1.14-7.53,1.71c-0.21-0.18-0.55-0.21-0.63-0.55c1.37-0.43,2.74-0.86,4.12-1.29
		c1.34-0.18,2.67-0.36,4.01-0.54c0.15,0.14,0.21,0.29,0.17,0.44C352.6,416.88,352.55,416.96,352.51,416.96z"/>
	<path class="st0" d="M352.51,416.96c-0.01-0.22-0.02-0.44-0.03-0.67c1.9-0.61,3.76-1.46,5.84-0.94
		C356.49,416.3,354.45,416.44,352.51,416.96z"/>
	<path class="st0" d="M264.49,446.59c4.82-0.2,9.52-1.02,13.98-2.94c0.33,0.2,0.34,0.42,0.04,0.66c-1,0.5-1.99,1-2.99,1.5
		C271.88,446.38,268.29,447.99,264.49,446.59z"/>
	<path class="st0" d="M344.35,418.12c0.21,0.18,0.42,0.37,0.63,0.55c-4.24,0.96-8.48,1.93-12.73,2.89
		c-0.21-0.18-0.55-0.21-0.63-0.55c1.37-0.43,2.74-0.86,4.12-1.29C338.61,419.19,341.48,418.65,344.35,418.12z"/>
	<path class="st0" d="M331.62,421.01c0.21,0.18,0.42,0.37,0.63,0.55c-3.86,0.73-7.61,2.02-11.55,2.38c0-0.19,0.01-0.38,0.01-0.56
		C324.35,422.59,327.98,421.8,331.62,421.01z"/>
	<path class="st0" d="M266.9,419.83c0.02-0.22,0.03-0.44,0.05-0.66c2.67,0.48,5.34,0.96,8.01,1.44c1.57,0.49,3.15,0.97,4.72,1.46
		c0.28,0.24,0.26,0.46-0.05,0.66C275.39,421.76,271.15,420.8,266.9,419.83z"/>
	<path class="st0" d="M279.63,422.73c0.02-0.22,0.03-0.44,0.05-0.66c3.83,0.83,7.66,1.66,11.5,2.49c0,0.19,0,0.37,0,0.56
		C287.33,424.32,283.48,423.53,279.63,422.73z"/>
	<path class="st0" d="M278.52,444.31c-0.01-0.22-0.03-0.44-0.04-0.66c4.63-1.95,8.28-5.07,10.97-9.31c0,0.37-0.01,0.74-0.01,1.11
		C286.93,439.81,283.23,442.69,278.52,444.31z"/>
</g>
</svg>
